<svg width="128" height="128" viewBox="0 0 128 128" xmlns="http://www.w3.org/2000/svg">
  <defs>
    <linearGradient id="gradient" x1="0%" y1="0%" x2="100%" y2="100%">
      <stop offset="0%" style="stop-color:#667eea;stop-opacity:1" />
      <stop offset="100%" style="stop-color:#764ba2;stop-opacity:1" />
    </linearGradient>
  </defs>
  
  <!-- Background circle -->
  <circle cx="64" cy="64" r="60" fill="url(#gradient)" stroke="#fff" stroke-width="4"/>
  
  <!-- Wizard hat -->
  <path d="M40 45 L88 45 L85 25 L43 25 Z" fill="#fff" opacity="0.9"/>
  <path d="M43 25 L85 25 L88 45 L40 45 Z" fill="#fff" opacity="0.7"/>
  
  <!-- Hat star -->
  <circle cx="64" cy="35" r="3" fill="#ffd700"/>
  <path d="M64 30 L66 35 L71 35 L67 38 L69 43 L64 40 L59 43 L61 38 L57 35 L62 35 Z" fill="#ffd700"/>
  
  <!-- Face -->
  <circle cx="64" cy="70" r="20" fill="#fff" opacity="0.9"/>
  
  <!-- Eyes -->
  <circle cx="58" cy="65" r="3" fill="#333"/>
  <circle cx="70" cy="65" r="3" fill="#333"/>
  
  <!-- Smile -->
  <path d="M58 75 Q64 82 70 75" stroke="#333" stroke-width="2" fill="none" stroke-linecap="round"/>
  
  <!-- Magic sparkles -->
  <circle cx="30" cy="30" r="2" fill="#ffd700" opacity="0.8"/>
  <circle cx="95" cy="35" r="1.5" fill="#ffd700" opacity="0.8"/>
  <circle cx="25" cy="80" r="1" fill="#ffd700" opacity="0.8"/>
  <circle cx="100" cy="85" r="2" fill="#ffd700" opacity="0.8"/>
  <circle cx="35" cy="100" r="1.5" fill="#ffd700" opacity="0.8"/>
  <circle cx="90" cy="105" r="1" fill="#ffd700" opacity="0.8"/>
</svg>
